<mxfile host="65bd71144e">
    <diagram id="7NhNte4oYimjxjnharbV" name="Page-1">
        <mxGraphModel dx="2031" dy="762" grid="1" gridSize="10" guides="1" tooltips="1" connect="1" arrows="1" fold="1" page="0" pageScale="1" pageWidth="827" pageHeight="1169" math="0" shadow="0">
            <root>
                <mxCell id="0"/>
                <mxCell id="1" parent="0"/>
                <mxCell id="EBAIrEwSQ_sO8G7dM4pI-14" style="edgeStyle=orthogonalEdgeStyle;rounded=0;orthogonalLoop=1;jettySize=auto;html=1;exitX=1;exitY=0.5;exitDx=0;exitDy=0;entryX=0;entryY=0.5;entryDx=0;entryDy=0;" parent="1" source="EBAIrEwSQ_sO8G7dM4pI-9" target="Mj1HlDtWmFxS42TAMx8B-1" edge="1">
                    <mxGeometry relative="1" as="geometry">
                        <mxPoint x="-810" y="115" as="targetPoint"/>
                    </mxGeometry>
                </mxCell>
                <object label="" type="initialstate" id="EBAIrEwSQ_sO8G7dM4pI-9">
                    <mxCell style="ellipse;whiteSpace=wrap;html=1;aspect=fixed;glass=0;sketch=0;fillColor=#000000;" parent="1" vertex="1">
                        <mxGeometry x="-810" y="105" width="30" height="30" as="geometry"/>
                    </mxCell>
                </object>
                <mxCell id="EBAIrEwSQ_sO8G7dM4pI-15" style="edgeStyle=orthogonalEdgeStyle;rounded=0;orthogonalLoop=1;jettySize=auto;html=1;exitX=0.75;exitY=0;exitDx=0;exitDy=0;entryX=0;entryY=0.25;entryDx=0;entryDy=0;" parent="1" source="Mj1HlDtWmFxS42TAMx8B-8" target="EBAIrEwSQ_sO8G7dM4pI-13" edge="1">
                    <mxGeometry relative="1" as="geometry">
                        <mxPoint x="-190" y="52.5" as="sourcePoint"/>
                        <mxPoint x="60" y="95" as="targetPoint"/>
                        <Array as="points">
                            <mxPoint x="-492" y="80"/>
                            <mxPoint x="-50" y="80"/>
                            <mxPoint x="-50" y="89"/>
                        </Array>
                    </mxGeometry>
                </mxCell>
                <mxCell id="EBAIrEwSQ_sO8G7dM4pI-18" value="speedSensorOn" style="edgeLabel;html=1;align=center;verticalAlign=middle;resizable=0;points=[];" parent="EBAIrEwSQ_sO8G7dM4pI-15" vertex="1" connectable="0">
                    <mxGeometry x="0.3111" y="1" relative="1" as="geometry">
                        <mxPoint x="5" y="-19" as="offset"/>
                    </mxGeometry>
                </mxCell>
                <mxCell id="EBAIrEwSQ_sO8G7dM4pI-16" style="edgeStyle=orthogonalEdgeStyle;rounded=0;orthogonalLoop=1;jettySize=auto;html=1;exitX=0;exitY=0.75;exitDx=0;exitDy=0;entryX=1;entryY=0.75;entryDx=0;entryDy=0;" parent="1" source="EBAIrEwSQ_sO8G7dM4pI-13" target="Mj1HlDtWmFxS42TAMx8B-2" edge="1">
                    <mxGeometry relative="1" as="geometry">
                        <mxPoint x="60" y="135" as="sourcePoint"/>
                        <mxPoint x="-190" y="160" as="targetPoint"/>
                        <Array as="points">
                            <mxPoint x="10" y="148"/>
                            <mxPoint x="-50" y="148"/>
                            <mxPoint x="-50" y="140"/>
                        </Array>
                    </mxGeometry>
                </mxCell>
                <mxCell id="EBAIrEwSQ_sO8G7dM4pI-21" value="fastenSeatbelt" style="edgeLabel;html=1;align=center;verticalAlign=middle;resizable=0;points=[];" parent="EBAIrEwSQ_sO8G7dM4pI-16" vertex="1" connectable="0">
                    <mxGeometry x="-0.0875" y="1" relative="1" as="geometry">
                        <mxPoint x="-48" y="19" as="offset"/>
                    </mxGeometry>
                </mxCell>
                <object label="On" type="state" id="EBAIrEwSQ_sO8G7dM4pI-13">
                    <mxCell style="swimlane;rounded=1;whiteSpace=wrap;html=1;glass=0;sketch=0;" parent="1" vertex="1">
                        <mxGeometry x="10" y="60" width="190" height="115" as="geometry">
                            <mxRectangle x="-190" y="-10" width="60" height="23" as="alternateBounds"/>
                        </mxGeometry>
                    </mxCell>
                </object>
                <mxCell id="EBAIrEwSQ_sO8G7dM4pI-20" style="edgeStyle=orthogonalEdgeStyle;rounded=0;orthogonalLoop=1;jettySize=auto;html=1;exitX=0;exitY=0.5;exitDx=0;exitDy=0;exitPerimeter=0;entryX=0.5;entryY=0;entryDx=0;entryDy=0;endArrow=none;endFill=0;dashed=1;" parent="1" source="EBAIrEwSQ_sO8G7dM4pI-19" target="Mj1HlDtWmFxS42TAMx8B-1" edge="1">
                    <mxGeometry relative="1" as="geometry">
                        <mxPoint x="-540" y="-65" as="targetPoint"/>
                    </mxGeometry>
                </mxCell>
                <object label="" type="note" id="EBAIrEwSQ_sO8G7dM4pI-19">
                    <mxCell style="shape=note;whiteSpace=wrap;html=1;backgroundOutline=1;darkOpacity=0.05;glass=0;sketch=0;fillColor=#ffffff;" parent="1" vertex="1">
                        <mxGeometry x="-420" y="-190" width="80" height="100" as="geometry"/>
                    </mxCell>
                </object>
                <object label="Off" type="state" id="Mj1HlDtWmFxS42TAMx8B-1">
                    <mxCell style="swimlane;rounded=1;whiteSpace=wrap;html=1;glass=0;sketch=0;startSize=23;" parent="1" vertex="1">
                        <mxGeometry x="-710" y="20" width="480" height="180" as="geometry">
                            <mxRectangle x="-190" y="-10" width="60" height="23" as="alternateBounds"/>
                        </mxGeometry>
                    </mxCell>
                </object>
                <object label="Fasten" type="state" id="Mj1HlDtWmFxS42TAMx8B-2">
                    <mxCell style="swimlane;rounded=1;whiteSpace=wrap;html=1;glass=0;sketch=0;startSize=23;" parent="Mj1HlDtWmFxS42TAMx8B-1" vertex="1">
                        <mxGeometry x="360" y="90" width="80" height="40" as="geometry"/>
                    </mxCell>
                </object>
                <mxCell id="Mj1HlDtWmFxS42TAMx8B-6" style="edgeStyle=orthogonalEdgeStyle;rounded=0;orthogonalLoop=1;jettySize=auto;html=1;exitX=1;exitY=0.5;exitDx=0;exitDy=0;endArrow=classic;endFill=1;entryX=0;entryY=0.5;entryDx=0;entryDy=0;" parent="Mj1HlDtWmFxS42TAMx8B-1" source="Mj1HlDtWmFxS42TAMx8B-7" target="Mj1HlDtWmFxS42TAMx8B-8" edge="1">
                    <mxGeometry relative="1" as="geometry">
                        <mxPoint x="130" y="110" as="targetPoint"/>
                    </mxGeometry>
                </mxCell>
                <object label="" type="initialstate" id="Mj1HlDtWmFxS42TAMx8B-7">
                    <mxCell style="ellipse;whiteSpace=wrap;html=1;aspect=fixed;glass=0;sketch=0;fillColor=#000000;container=0;" parent="Mj1HlDtWmFxS42TAMx8B-1" vertex="1">
                        <mxGeometry x="50" y="95" width="30" height="30" as="geometry"/>
                    </mxCell>
                </object>
                <object label="UnFasten" type="state" id="Mj1HlDtWmFxS42TAMx8B-8">
                    <mxCell style="swimlane;rounded=1;whiteSpace=wrap;html=1;glass=0;sketch=0;startSize=23;" parent="Mj1HlDtWmFxS42TAMx8B-1" vertex="1">
                        <mxGeometry x="150" y="90" width="90" height="40" as="geometry"/>
                    </mxCell>
                </object>
                <mxCell id="Mj1HlDtWmFxS42TAMx8B-9" style="edgeStyle=orthogonalEdgeStyle;rounded=0;orthogonalLoop=1;jettySize=auto;html=1;endArrow=classic;endFill=1;exitX=0;exitY=0.75;exitDx=0;exitDy=0;entryX=1;entryY=0.75;entryDx=0;entryDy=0;" parent="Mj1HlDtWmFxS42TAMx8B-1" source="Mj1HlDtWmFxS42TAMx8B-2" target="Mj1HlDtWmFxS42TAMx8B-8" edge="1">
                    <mxGeometry relative="1" as="geometry">
                        <mxPoint x="400" y="170" as="sourcePoint"/>
                        <mxPoint x="210" y="170" as="targetPoint"/>
                        <Array as="points">
                            <mxPoint x="300" y="120"/>
                            <mxPoint x="300" y="120"/>
                        </Array>
                    </mxGeometry>
                </mxCell>
                <mxCell id="Mj1HlDtWmFxS42TAMx8B-10" value="unfastenSeatbelt" style="edgeLabel;html=1;align=center;verticalAlign=middle;resizable=0;points=[];" parent="Mj1HlDtWmFxS42TAMx8B-9" connectable="0" vertex="1">
                    <mxGeometry x="-0.25" y="2" relative="1" as="geometry">
                        <mxPoint x="-15" y="18" as="offset"/>
                    </mxGeometry>
                </mxCell>
                <mxCell id="Mj1HlDtWmFxS42TAMx8B-25" style="edgeStyle=orthogonalEdgeStyle;rounded=0;orthogonalLoop=1;jettySize=auto;html=1;endArrow=classic;endFill=1;entryX=0;entryY=0.25;entryDx=0;entryDy=0;exitX=1;exitY=0.25;exitDx=0;exitDy=0;" parent="Mj1HlDtWmFxS42TAMx8B-1" source="Mj1HlDtWmFxS42TAMx8B-8" target="Mj1HlDtWmFxS42TAMx8B-2" edge="1">
                    <mxGeometry relative="1" as="geometry">
                        <mxPoint x="240" y="100" as="sourcePoint"/>
                        <mxPoint x="340" y="120" as="targetPoint"/>
                        <Array as="points">
                            <mxPoint x="330" y="100"/>
                            <mxPoint x="330" y="100"/>
                        </Array>
                    </mxGeometry>
                </mxCell>
                <mxCell id="Mj1HlDtWmFxS42TAMx8B-26" value="fastenSeatbelt" style="edgeLabel;html=1;align=center;verticalAlign=middle;resizable=0;points=[];" parent="Mj1HlDtWmFxS42TAMx8B-25" connectable="0" vertex="1">
                    <mxGeometry x="-0.25" y="2" relative="1" as="geometry">
                        <mxPoint x="15" y="-18" as="offset"/>
                    </mxGeometry>
                </mxCell>
                <mxCell id="Mj1HlDtWmFxS42TAMx8B-28" style="edgeStyle=orthogonalEdgeStyle;rounded=0;orthogonalLoop=1;jettySize=auto;html=1;entryX=0.75;entryY=1;entryDx=0;entryDy=0;exitX=0.25;exitY=1;exitDx=0;exitDy=0;" parent="1" source="EBAIrEwSQ_sO8G7dM4pI-13" target="Mj1HlDtWmFxS42TAMx8B-1" edge="1">
                    <mxGeometry relative="1" as="geometry">
                        <mxPoint x="100" y="250" as="sourcePoint"/>
                        <mxPoint x="-180" y="310" as="targetPoint"/>
                        <Array as="points">
                            <mxPoint x="65" y="175"/>
                            <mxPoint x="65" y="270"/>
                            <mxPoint x="-350" y="270"/>
                        </Array>
                    </mxGeometry>
                </mxCell>
                <mxCell id="Mj1HlDtWmFxS42TAMx8B-29" value="speedSensorOff" style="edgeLabel;html=1;align=center;verticalAlign=middle;resizable=0;points=[];" parent="Mj1HlDtWmFxS42TAMx8B-28" connectable="0" vertex="1">
                    <mxGeometry x="-0.0875" y="1" relative="1" as="geometry">
                        <mxPoint x="-39" y="-1" as="offset"/>
                    </mxGeometry>
                </mxCell>
            </root>
        </mxGraphModel>
    </diagram>
</mxfile>